<?xml version="1.0" encoding="UTF-8" standalone="no" ?>
<!DOCTYPE svg PUBLIC "-//W3C//DTD SVG 1.1//EN" "http://www.w3.org/Graphics/SVG/1.1/DTD/svg11.dtd">
<svg xmlns="http://www.w3.org/2000/svg" xmlns:xlink="http://www.w3.org/1999/xlink" version="1.1" width="1280" height="1024" viewBox="0 0 1280 1024" xml:space="preserve">
<desc>Created with Fabric.js 5.3.0</desc>
<defs>
</defs>
<g transform="matrix(1 0 0 1 640 512)" id="background-logo"  >
<rect style="stroke: none; stroke-width: 0; stroke-dasharray: none; stroke-linecap: butt; stroke-dashoffset: 0; stroke-linejoin: miter; stroke-miterlimit: 4; fill: rgb(140,129,107); fill-rule: nonzero; opacity: 1;"  paint-order="stroke"  x="-640" y="-512" rx="0" ry="0" width="1280" height="1024" />
</g>
<g transform="matrix(1.9211538461538462 0 0 1.9211538461538462 640.8128370838757 512.278687000186)" id="logo-logo"  >
<g style=""  paint-order="stroke"   >
		<g transform="matrix(1.1132614489344623 0 0 1.1132614489344623 0 15.254782379480048)"  >
<g style=""  paint-order="stroke"   >
		<g transform="matrix(1 0 0 1 -68.62529509555696 40.271986845381335)"  >
<path style="stroke: none; stroke-width: 1; stroke-dasharray: none; stroke-linecap: butt; stroke-dashoffset: 0; stroke-linejoin: miter; stroke-miterlimit: 4; fill: rgb(123,111,91); fill-rule: nonzero; opacity: 1;"  paint-order="stroke"  transform=" translate(-56.374704904443036, -127.78114308351942)" d="M 76.8553 166.01605 C 79.57319 163.13003 92.59822 144.5506 99.87627 132.54706000000002 L 99.87823 132.54706000000002 L 100.12888 132.13136000000003 C 100.31477 131.82293000000004 100.49660999999999 131.51899000000003 100.67411 131.21994000000004 C 101.20675 130.32307000000003 101.7005 129.47069000000005 102.14753999999999 128.67619000000005 C 103.2738 126.66816000000004 104.02493 125.17375000000004 104.44342999999999 124.10734000000005 C 107.67227999999999 115.95382000000005 108.20882999999999 104.59831000000005 105.77865999999999 95.85117000000005 C 105.56521 95.07991000000005 105.31875999999998 94.31340000000006 105.04515999999998 93.56955000000005 C 104.02155999999998 90.81544000000005 102.72604999999999 88.95232000000004 101.08616999999998 87.87445000000005 C 101.08364999999998 87.87277000000006 101.08112999999999 87.87151000000006 101.07861999999999 87.86983000000005 L 100.94461999999999 87.78185000000005 L 100.92461999999999 87.77793000000005 C 98.30212999999999 86.15483000000006 95.18643999999999 86.70929000000005 92.47218999999998 87.47916000000005 C 86.76366999999999 89.09974000000005 11.868279999999984 106.96356000000006 11.11239999999998 107.14400000000005 L 10.771669999999979 107.22513000000005 L 7.3159499999999795 112.70819000000004 L 7.282099999999979 112.82736000000004 C 7.23509999999998 112.99353000000004 4.735699999999979 122.11148000000004 5.665439999999979 133.17131000000003 L 5.611169999999979 133.17145000000002 L 5.611169999999979 133.32727000000003 L 5.665999999999979 133.47330000000002 C 5.677609999999979 133.50421000000003 5.689639999999979 133.53121000000002 5.701249999999979 133.56169000000003 C 5.7780399999999785 134.40387000000004 5.8730099999999785 135.25584000000003 5.992469999999979 136.11635000000004 L 5.9435 136.11635000000004 L 5.94909 136.34323000000003 L 6.01343 136.47526000000002 C 6.03105 136.52589000000003 6.049659999999999 136.57261000000003 6.067419999999999 136.62255000000002 C 7.300269999999999 144.90964000000002 10.66731 153.84479000000002 18.44233 160.72546000000003 L 18.630319999999998 160.89163000000002 L 66.92424 168.49179 C 67.19308 168.56229000000002 68.32688999999999 168.83363 69.82773999999999 168.83363 C 71.90709999999999 168.83363 74.69086999999999 168.31274 76.85528 166.01602 L 76.8553 166.01605 z M 10.81895 140.16682 C 9.92823 140.16682 8.917649999999998 138.9909 8.072949999999999 137.03141 C 8.584329999999998 137.35871 9.074169999999999 137.52712 9.483999999999998 137.46838 C 12.284969999999998 137.06723 13.77029 130.48672 13.77029 123.44017 C 13.77029 118.04916 13.222959999999999 112.14397 11.26865 110.77628 L 11.85206 108.73468 C 12.135159999999999 108.66712 12.55283 108.56752999999999 13.08743 108.43997 C 14.73374 111.51594 15.78056 117.20711 15.78056 123.23707 C 15.78056 133.72621 12.89077 140.16683 10.81896 140.16683 L 10.81895 140.16683 z M 99.27818 89.31992 C 99.60534000000001 89.31992 99.93713000000001 89.34817 100.26653 89.40328 C 100.32947 89.44734 100.3913 89.49434 100.45298 89.54176 C 100.53089 89.60149 100.60922 89.65995 100.68531 89.72513 C 100.76392 89.79240999999999 100.84015 89.86653999999999 100.9168 89.93955999999999 C 100.99064999999999 90.00977999999999 101.06521 90.07816999999999 101.13738 90.15384999999999 C 101.21319 90.23316 101.28648999999999 90.32029999999999 101.36034 90.40561999999998 C 101.42999999999999 90.48604999999999 101.50049 90.56367999999999 101.56846999999999 90.64927999999999 C 101.64147999999999 90.74145999999999 101.71225999999999 90.84230999999998 101.78359999999999 90.94063999999999 C 101.84431 91.02441999999999 101.90598999999999 91.10540999999999 101.96543999999999 91.19380999999998 C 101.29348999999999 90.92790999999998 100.60586999999998 91.05602999999998 99.91194999999999 91.11030999999998 C 94.65562999999999 91.52237999999998 90.73105999999999 99.02183999999998 90.73105999999999 109.83883999999998 C 90.73105999999999 120.56701999999997 95.04727999999999 128.57115999999996 99.77655999999999 129.35528999999997 C 99.52296999999999 129.79043999999996 99.25762999999999 130.23942999999997 98.98306 130.69891999999996 C 98.95956 130.73822999999996 98.93592 130.77780999999996 98.91228 130.81724999999994 C 92.93296 130.45735999999994 88.12913 121.29170999999994 88.12913 110.07690999999994 C 88.12913 98.63159999999993 93.13046 89.31992999999994 99.27819000000001 89.31992999999994 L 99.27818 89.31992999999994 z M 24.87878 159.73573 C 21.38837 159.73573 17.499319999999997 150.32837999999998 17.499319999999997 136.82943 C 17.499319999999997 123.33134 21.387809999999998 113.92426 24.87822 113.92313 L 24.87962 113.92313 C 28.36947 113.92453 32.25796 123.33145999999999 32.25796 136.82943 C 32.25796 150.32838 28.36891 159.73573 24.87878 159.73573 z M 44.33662 162.82863 C 39.82737 162.82863 34.99949 152.18228 34.99949 136.33374 C 34.99949 120.48520000000002 39.82737 109.83885000000001 44.33662 109.83885000000001 C 48.845870000000005 109.83885000000001 53.67374 120.4852 53.67374 136.33374 C 53.67374 152.18228 48.84587 162.82863 44.33662 162.82863 z M 56.41444 135.90265 C 56.41444 118.98630999999999 62.57028 104.69514 69.85687 104.69514 C 77.14346 104.69514 83.29958 118.98631999999999 83.29958 135.90265 C 83.29958 152.61057 77.29312 166.74803 70.12445000000001 167.09351999999998 C 69.98695000000001 167.09771999999998 69.84876000000001 167.10232 69.71784000000001 167.10135 C 62.49237 166.92021 56.41444 152.71059 56.41444 135.90265 z" stroke-linecap="round" />
</g>
		<g transform="matrix(1 0 0 1 -55.68472 48.71406376186191)"  >
<ellipse style="stroke: none; stroke-width: 1; stroke-dasharray: none; stroke-linecap: butt; stroke-dashoffset: 0; stroke-linejoin: miter; stroke-miterlimit: 4; fill: rgb(123,111,91); fill-rule: nonzero; opacity: 1;"  paint-order="stroke"  cx="0" cy="0" rx="10.67138" ry="26.38438" />
</g>
		<g transform="matrix(1 0 0 1 -81.15474999999999 49.0981637618619)"  >
<path style="stroke: none; stroke-width: 1; stroke-dasharray: none; stroke-linecap: butt; stroke-dashoffset: 0; stroke-linejoin: miter; stroke-miterlimit: 4; fill: rgb(123,111,91); fill-rule: nonzero; opacity: 1;"  paint-order="stroke"  transform=" translate(-43.84525000000001, -136.60732)" d="M 43.84539 114.81415 C 39.28173 114.81415 36.819250000000004 126.04251 36.819250000000004 136.60732 C 36.819250000000004 147.17212999999998 39.28173 158.40049 43.84539 158.40049 C 48.408770000000004 158.40049 50.87125 147.17212999999998 50.87125 136.60732 C 50.87125 126.04251 48.40877 114.81415 43.84539 114.81415 z" stroke-linecap="round" />
</g>
		<g transform="matrix(1 0 0 1 -100.52965 49.5580537618619)"  >
<ellipse style="stroke: none; stroke-width: 1; stroke-dasharray: none; stroke-linecap: butt; stroke-dashoffset: 0; stroke-linejoin: miter; stroke-miterlimit: 4; fill: rgb(123,111,91); fill-rule: nonzero; opacity: 1;"  paint-order="stroke"  cx="0" cy="0" rx="5.58586" ry="19.47755" />
</g>
		<g transform="matrix(1 0 0 1 98.00616376261902 60.452227966682116)"  >
<path style="stroke: none; stroke-width: 1; stroke-dasharray: none; stroke-linecap: butt; stroke-dashoffset: 0; stroke-linejoin: miter; stroke-miterlimit: 4; fill: rgb(123,111,91); fill-rule: nonzero; opacity: 1;"  paint-order="stroke"  transform=" translate(-223.00616376261902, -147.9613842048202)" d="M 223.02754 147.93779 L 222.98165999999998 147.98633 C 223.02026 147.94968 223.03845 147.93108 223.02754 147.93779 z" stroke-linecap="round" />
</g>
		<g transform="matrix(1 0 0 1 0 0)"  >
<path style="stroke: none; stroke-width: 1; stroke-dasharray: none; stroke-linecap: butt; stroke-dashoffset: 0; stroke-linejoin: miter; stroke-miterlimit: 4; fill: rgb(123,111,91); fill-rule: nonzero; opacity: 1;"  paint-order="stroke"  transform=" translate(-125, -87.50915623813809)" d="M 236.7886 88.8505 L 217.89753000000002 87.44617 L 197.44367000000003 89.16592 L 176.18412000000004 73.12980999999999 C 174.83630000000002 72.17390999999999 173.26188000000005 71.53021 171.63094000000004 71.26865 L 152.96143000000004 68.27144 L 158.30069000000003 65.05826 C 174.56017000000003 54.629270000000005 172.94882000000004 39.14078000000001 171.50085000000004 32.96452000000001 C 171.38923000000005 32.49203000000001 171.24432000000004 32.029880000000006 171.07103000000004 31.580050000000007 L 208.29240000000004 13.683200000000006 C 208.68013000000005 13.562210000000006 209.18214000000003 13.274910000000007 209.56189000000003 12.589950000000007 C 210.33455000000004 11.196250000000006 210.28027000000003 8.664530000000006 209.42006000000003 5.982590000000007 C 208.34274000000005 2.623100000000007 206.10812000000004 -0.489369999999993 203.92413000000005 0.06425000000000747 C 203.71264000000005 0.11782000000000747 203.45500000000004 0.22413000000000746 203.19778000000005 0.42149000000000747 L 158.44783000000007 19.46390000000001 C 157.67531000000008 19.03868000000001 155.96591000000006 18.13272000000001 155.00638000000006 17.89172000000001 C 154.68425000000008 17.80947000000001 154.11691000000008 17.76849000000001 151.56073000000006 18.27316000000001 C 143.86194000000006 15.060540000000012 135.90537000000006 12.920470000000012 127.90501000000006 11.91911000000001 C 109.51888000000005 9.618470000000011 88.96444000000005 16.70531000000001 78.35166000000007 21.13371000000001 C 74.61563000000007 22.68799000000001 71.89089000000007 25.992640000000012 71.06256000000006 29.97401000000001 L 62.258350000000064 72.39295000000001 L 36.374710000000064 79.86277000000001 C 34.61985000000006 80.36939000000001 33.264200000000066 81.71806000000001 32.74862000000007 83.47039000000001 L 30.011850000000067 92.77605000000001 L 8.77064 99.08421 L 8.48586 99.16897 L 0 111.15167 L 4.97755 112.69364999999999 C 4.95643 112.79198 9.545829999999999 106.17021999999999 9.545829999999999 106.17021999999999 C 14.8034 104.76224999999998 84.51115 85.99119999999999 92.35807 83.88833999999999 C 101.96544 81.31367999999999 103.5849 82.82949999999998 104.6885 83.06000999999999 C 105.59754000000001 84.21677 106.44573000000001 85.25854999999999 107.25882 86.21835999999999 C 112.87783 93.51977 115.11091 111.55775 109.56786 123.88272999999998 C 106.02065999999999 131.77021 89.14405 155.25557999999998 88.95411 155.52077999999997 C 78.96909 170.66503999999998 72.03023 173.02288999999996 71.13980000000001 173.27101999999996 C 70.30643 173.59189999999995 70.00738000000001 174.38119999999998 69.73477000000001 174.86389999999997 C 70.45890000000001 174.96516999999997 71.18764000000002 175.01831999999996 71.91750000000002 175.01831999999996 C 72.53294000000002 175.01831999999996 73.14923000000002 174.98222999999996 73.76355000000002 174.91005999999996 L 101.06802000000002 171.69771999999995 C 104.21462000000002 171.32759999999996 107.18722000000002 170.02805999999995 109.57374000000002 167.94406999999995 C 112.46423000000001 165.41977999999995 115.12939000000001 162.83267999999995 117.58711000000001 160.23018999999996 L 175.98271 166.28853999999995 C 176.2328 166.34950999999995 177.01861 166.51401999999996 178.19635 166.51401999999996 C 178.44644 166.51401999999996 178.71626 166.50534999999996 179.0002 166.48799999999997 L 179.00147 166.50897999999998 L 202.0577 165.79394999999997 C 204.76229 165.71002999999996 207.32366000000002 164.55885999999995 209.18188 162.59210999999996 L 222.98168 147.98634999999996 C 222.34162 148.59423999999996 215.18148000000002 154.92520999999996 210.0505 159.44899999999996 C 206.69969 162.40340999999995 202.40922 164.07140999999996 197.94277 164.15756999999996 L 185.84859 164.39087999999995 C 186.51845 164.01923999999994 187.20592 163.58897999999996 187.90781 163.08403999999996 C 192.00359 160.13718999999995 212.88422000000003 144.79469999999995 221.73961000000003 132.11571999999995 C 228.58461000000003 122.31476999999995 229.25824000000003 114.91655999999995 229.25615000000002 112.36721999999995 L 230.6023 112.36721999999995 L 232.66628 108.32066999999995 C 234.1663 108.33870999999995 245.84394 108.34472999999996 246.43042 108.31311999999996 C 249.25391 108.16121999999996 250 105.22777999999995 250 103.69812999999995 L 250 103.36550999999994 L 236.78864 88.85052999999995 L 236.7886 88.8505 z M 208.05881 11.75657 C 207.99474999999998 11.87183 207.89208 12.01618 207.7676 12.047789999999999 C 207.55624999999998 12.10122 207.19565 11.935049999999999 206.77140999999997 11.551799999999998 L 208.14440999999997 11.551799999999998 C 208.11644 11.62202 208.0907 11.69923 208.05881 11.75657 z M 208.37268 10.37727 L 205.98979 10.669749999999999 C 205.91369 10.566239999999999 205.83705 10.455319999999999 205.7604 10.340069999999999 L 208.37884 10.023679999999999 C 208.37786 10.14341 208.37911 10.266499999999999 208.37269 10.377279999999999 L 208.37268 10.37727 z M 208.34891 9.25422 L 205.33057 9.62461 C 205.12969999999999 9.259680000000001 204.93277 8.85614 204.7466 8.40701 L 208.04259 7.41712 C 208.20903 8.08628 208.30276 8.69878 208.34891 9.25422 z M 207.13046 4.83337 C 207.34712 5.29649 207.55302 5.81444 207.74101 6.38359 L 204.35326999999998 7.3389299999999995 C 204.34557999999998 7.315569999999999 204.33731999999998 7.294309999999999 204.32976999999997 7.270809999999999 C 204.26192999999998 7.059179999999999 204.20932999999997 6.857199999999999 204.15393999999998 6.653549999999999 C 204.15395 6.65355 207.13046 4.83337 207.13046 4.83337 z M 204.0545 2.02163 C 204.11856 1.9063700000000001 204.22123 1.7620200000000001 204.34571 1.73041 C 204.37229 1.7237 204.40137 1.72034 204.43215 1.72034 C 204.71679 1.72034 205.18131 2.0072200000000002 205.70025 2.58476 L 203.75405 4.36479 C 203.68342 3.28608 203.81225 2.45873 204.05450000000002 2.02162 L 204.05450000000002 2.02163 z M 202.08398 2.76352 C 201.8964 4.150650000000001 202.09545 5.93208 202.69326 7.7956199999999995 C 202.99259 8.729 203.38508000000002 9.63734 203.83727000000002 10.45882 C 199.24412 13.606399999999999 172.65929000000003 27.68595 166.05109000000002 28.972369999999998 C 163.55182000000002 29.458849999999998 161.05255000000002 30.047019999999996 158.50644000000003 30.067719999999998 C 157.17470000000003 30.07849 155.83373000000003 29.94785 154.54144000000002 29.61873 C 154.00125000000003 29.48123 152.75749000000002 28.79264 151.99658000000002 28.72088 C 151.75445000000002 27.563560000000003 151.82216000000003 26.478 151.98707000000002 25.60323 C 152.18234 24.56705 152.90576000000001 23.69032 153.92208000000002 23.25783 L 202.08398000000003 2.7635299999999994 L 202.08398 2.76352 z M 151.64719 20.008 C 153.9719 19.5397 154.50341 19.54893 154.58538 19.55789 C 155.01046 19.66475 155.72367 19.990660000000002 156.40598 20.33279 L 153.24903 21.67614 C 151.70344 22.33411 150.6001 23.68305 150.29796000000002 25.2846 C 149.90241000000003 27.38299 149.95947 30.47504 152.47635000000002 33.29041 C 154.50704000000002 35.56224 157.08827000000002 36.129290000000005 159.15981000000002 36.129290000000005 C 161.13874 36.129290000000005 162.65275000000003 35.611760000000004 162.77807 35.56756000000001 L 164.52789 34.726220000000005 C 163.45744000000002 36.65256000000001 162.06331 37.92569 161.58635 38.328950000000006 C 158.16225 38.70087000000001 154.58482 37.722460000000005 151.8931 35.562250000000006 C 148.48340000000002 32.82576 147.22161 28.961610000000007 147.0006 24.755880000000005 C 145.85838999999999 25.416920000000005 146.22163999999998 29.456760000000003 146.33535999999998 30.597010000000004 C 146.54012999999998 32.65106 147.13403999999997 34.669290000000004 148.10880999999998 36.490730000000006 C 148.31189999999998 36.870070000000005 148.53304999999997 37.241150000000005 148.77685999999997 37.595870000000005 C 144.99117999999996 34.370520000000006 144.73213999999996 27.849050000000005 144.95564999999996 24.036370000000005 C 145.04768999999996 22.532730000000004 146.10009999999997 21.286730000000006 147.57827999999995 20.934530000000006 C 149.05029 20.57644 150.49715 20.24718 151.64719 20.008 z M 126.85233 47.71727 L 128.51935 45.12849 C 139.46015 28.266009999999998 133.71076 17.99089 130.27057 13.99371 C 136.44795 14.95996 142.58548 16.61383 148.58115999999998 18.92944 C 148.11930999999998 19.03728 147.65071999999998 19.14806 147.17598999999998 19.2636 C 144.96038 19.7912 143.37869999999998 21.66691 143.23994 23.93343 C 142.9725 28.49639 143.37142 36.63844 149.05001 39.90002 C 151.73362999999998 41.44031 154.10560999999998 41.95756 156.08173 41.95756 C 159.84404 41.95756 162.17069999999998 40.08241 162.47564 39.821690000000004 C 162.79008 39.57929 165.4502 37.44579 166.80724 33.901390000000006 C 168.19632000000001 44.47053000000001 159.86377000000002 52.95792 157.16686 55.392140000000005 C 156.71869 55.79218 156.122 55.96003 155.53705000000002 55.852880000000006 L 128.03703000000002 50.70832000000001 C 127.42411000000001 50.59348000000001 126.92783000000001 50.207570000000004 126.66684000000002 49.646260000000005 C 126.37872 49.0262 126.48223 48.29215 126.85233 47.71727 z M 105.38423 72.93734 L 140.50401 78.22932 L 153.042 95.16048 C 147.73267 94.93878000000001 131.743 93.99687 123.36891 90.49457000000001 C 115.33961 87.13634 107.98938 76.88177 105.38423 72.93734 z M 140.53423 123.06319 L 138.60621 125.59687000000001 L 116.98985 125.59687000000001 L 118.91787000000001 123.06319 L 140.53423 123.06319 L 140.53423 123.06319 z M 112.52731 133.23018 L 134.14367 133.23018 L 132.32056999999998 135.82819999999998 L 110.70420999999997 135.82819999999998 C 110.70421 135.8282 112.52732 133.23018 112.52731 133.23018 z M 104.61172 146.05968 L 106.43497 143.46151999999998 L 128.05133 143.46151999999998 L 126.22808 146.05968 C 126.22808 146.05968 104.61171 146.05968 104.61172 146.05968 z M 217.90231 129.40128 C 212.30259 136.94774 195.64058 150.89176 188.89923 156.09423 C 182.21438999999998 161.25277 177.74401999999998 161.01583000000002 177.72444 161.01611 L 121.99635999999998 155.29359 C 123.74841999999998 153.21842999999998 125.37150999999999 151.15249 126.87458999999998 149.11872 C 137.77634999999998 149.94424999999998 148.57808999999997 150.23743 158.38744999999997 150.23743 C 171.85559999999998 150.23743 178.97518999999997 149.94915 186.39493 149.48336999999998 C 188.47988999999998 149.35244999999998 190.46749 148.63377999999997 192.14346999999998 147.40484999999998 C 204.29736999999997 138.49154 216.31588 130.17925999999997 220.86372999999998 124.23419999999999 C 219.3598 127.17435 217.91238 129.38477 217.90231 129.40128 z M 143.57564 108.1799 C 143.52877999999998 104.45996000000001 143.32582 101.48177 143.23729 100.33802 C 144.88039 100.49104 146.24779 100.60434 147.1539 100.67568 L 144.84264 106.28182 L 150.88880999999998 106.28182 L 155.79137999999998 95.98516 L 141.46242999999998 76.63557999999999 L 103.58210999999999 70.92732999999998 L 57.01059 84.75805 L 105.18745 64.5116 C 106.54478 64.11939 108.00059 64.03099 109.39484999999999 64.25479 L 171.3585 72.96557 C 172.73094 73.18573 174.05554999999998 73.72732 175.16921 74.51677 L 222.53185 110.24303 C 223.21107999999998 110.75553000000001 223.72176 111.41446 224.05786999999998 112.14391 L 143.57565 108.17989 L 143.57565 108.1799 z M 231.71484 102.48872 L 219.96013000000002 89.32325 L 235.97847000000002 90.51386000000001 L 247.28879 102.94009000000001 C 241.38291 103.16766000000001 233.44660000000002 102.61726000000002 231.71483 102.48872000000001 L 231.71484 102.48872000000001 z" stroke-linecap="round" />
</g>
		<g transform="matrix(1 0 0 1 108.62445500000001 39.093338761861915)"  >
<polygon style="stroke: none; stroke-width: 1; stroke-dasharray: none; stroke-linecap: butt; stroke-dashoffset: 0; stroke-linejoin: miter; stroke-miterlimit: 4; fill: rgb(123,111,91); fill-rule: nonzero; opacity: 1;"  paint-order="stroke"  points="-7.042145000000005,1.0056149999999917 5.307294999999982,1.0056149999999917 7.042144999999977,-1.005615000000006 -5.307305000000014,-1.005615000000006 " />
</g>
		<g transform="matrix(1 0 0 1 103.716845 47.0200487618619)"  >
<polygon style="stroke: none; stroke-width: 1; stroke-dasharray: none; stroke-linecap: butt; stroke-dashoffset: 0; stroke-linejoin: miter; stroke-miterlimit: 4; fill: rgb(123,111,91); fill-rule: nonzero; opacity: 1;"  paint-order="stroke"  points="-7.042145000000005,1.0055550000000153 5.307294999999982,1.0055550000000153 7.042145000000005,-1.0055549999999869 -5.3072950000000105,-1.0055549999999869 " />
</g>
		<g transform="matrix(1 0 0 1 96.67461500000002 54.111238761861884)"  >
<polygon style="stroke: none; stroke-width: 1; stroke-dasharray: none; stroke-linecap: butt; stroke-dashoffset: 0; stroke-linejoin: miter; stroke-miterlimit: 4; fill: rgb(123,111,91); fill-rule: nonzero; opacity: 1;"  paint-order="stroke"  points="-7.042155000000008,1.0055550000000153 5.307304999999985,1.0055550000000153 7.04215499999998,-1.0055549999999869 -5.3072950000000105,-1.0055549999999869 " />
</g>
</g>
</g>
		<g transform="matrix(1.3319737868958106 0 0 0.7973474636058739 -29.834770636677945 103.58346492101379)"  >
<g style=""  paint-order="stroke"   >
		<g transform="matrix(1 0 0 1 0 0)"  >
<path style="stroke: none; stroke-width: 1; stroke-dasharray: none; stroke-linecap: butt; stroke-dashoffset: 0; stroke-linejoin: miter; stroke-miterlimit: 4; fill: rgb(123,111,91); fill-rule: nonzero; opacity: 1;"  paint-order="stroke"  transform=" translate(-125, -16.8824023869372)" d="M 0 33.7 C 2.5 32.2 9.4 27.900000000000002 11.8 26.200000000000003 C 13.3 25.1 14.600000000000001 23.900000000000002 16.1 22.700000000000003 C 17.8 21.400000000000002 20.1 21.200000000000003 22.1 20.1 C 23.6 19.3 24.8 18.1 26.3 17.3 C 28.2 16.400000000000002 30 14.9 31.8 14.200000000000001 C 34.7 13.100000000000001 38.3 15.700000000000001 41.1 14.100000000000001 C 43.1 13.000000000000002 43.4 12.000000000000002 45.5 12.700000000000001 C 47.3 13.3 49.4 14.900000000000002 51.2 14.8 C 52.2 14.700000000000001 53.6 13.5 54.400000000000006 12.9 C 55.800000000000004 11.8 57.2 10.600000000000001 58.50000000000001 9.4 C 59.70000000000001 8.3 61.10000000000001 6.800000000000001 62.400000000000006 5.9 C 63.2 5.300000000000001 64.4 5.2 65.30000000000001 4.7 C 66.10000000000001 4.2 66.9 3.4000000000000004 67.70000000000002 2.9000000000000004 C 68.80000000000001 2.2 70.90000000000002 0.40000000000000036 72.20000000000002 0.10000000000000053 C 73.20000000000002 -0.09999999999999948 74.20000000000002 0.6000000000000005 75.10000000000002 1.0000000000000004 C 80.20000000000002 3.3000000000000003 85.50000000000003 6.4 89.80000000000003 9.9 C 94.40000000000002 13.7 100.80000000000003 14.5 105.70000000000003 17.7 C 106.10000000000004 16.9 107.70000000000003 16.8 108.50000000000003 16.4 C 109.70000000000003 15.799999999999999 110.70000000000003 14.299999999999999 112.10000000000002 14.499999999999998 C 112.80000000000003 14.599999999999998 113.40000000000002 15.199999999999998 114.00000000000003 15.499999999999998 C 116.30000000000003 16.9 117.50000000000003 16.7 119.70000000000003 15.599999999999998 C 121.70000000000003 14.599999999999998 123.40000000000003 13.999999999999998 125.20000000000003 12.699999999999998 C 126.60000000000004 11.699999999999998 128.10000000000002 10.799999999999997 129.60000000000002 9.899999999999999 C 130.70000000000002 9.2 132.00000000000003 7.599999999999999 133.3 7.499999999999998 C 133.9 7.499999999999998 135 8.199999999999998 135.60000000000002 8.499999999999998 C 137.20000000000002 9.299999999999999 139.70000000000002 10.199999999999998 141.00000000000003 11.299999999999997 C 142.40000000000003 12.399999999999997 142.40000000000003 13.599999999999998 144.30000000000004 12.999999999999996 C 145.50000000000003 12.699999999999996 145.60000000000005 12.399999999999997 146.90000000000003 12.899999999999997 C 148.40000000000003 13.499999999999996 149.50000000000003 14.799999999999997 151.00000000000003 15.299999999999997 C 152.00000000000003 15.599999999999998 153.00000000000003 15.299999999999997 153.90000000000003 15.799999999999997 C 154.50000000000003 16.099999999999998 154.80000000000004 16.999999999999996 155.50000000000003 17.099999999999998 C 156.40000000000003 17.2 157.60000000000002 16.2 158.30000000000004 15.799999999999997 C 161.00000000000003 13.999999999999996 163.90000000000003 12.299999999999997 166.40000000000003 10.199999999999998 C 168.40000000000003 8.499999999999998 169.40000000000003 7.299999999999997 171.90000000000003 8.399999999999997 C 174.60000000000002 9.699999999999998 177.20000000000005 11.599999999999998 179.80000000000004 13.199999999999996 C 181.90000000000003 14.399999999999995 184.00000000000003 15.299999999999995 186.00000000000003 16.599999999999994 C 187.20000000000002 17.399999999999995 188.00000000000003 17.899999999999995 189.30000000000004 17.699999999999996 C 190.50000000000003 17.499999999999996 191.70000000000005 16.399999999999995 193.00000000000003 16.599999999999994 C 193.60000000000002 16.699999999999996 194.60000000000002 17.599999999999994 195.20000000000002 17.999999999999993 C 197.60000000000002 19.599999999999994 199.70000000000002 21.39999999999999 202.50000000000003 22.39999999999999 C 203.70000000000002 22.79999999999999 204.90000000000003 23.09999999999999 206.10000000000002 23.499999999999993 C 206.8 23.799999999999994 207.50000000000003 24.499999999999993 208.3 24.499999999999993 C 209.4 24.499999999999993 209.9 23.599999999999994 210.70000000000002 22.89999999999999 C 211.60000000000002 22.09999999999999 213.00000000000003 20.999999999999993 214.20000000000002 20.699999999999992 C 215.3 20.39999999999999 216.70000000000002 20.999999999999993 217.8 20.699999999999992 C 220.10000000000002 19.999999999999993 221.5 16.699999999999992 224.3 16.499999999999993 C 226 16.39999999999999 228.60000000000002 18.699999999999992 229.8 19.699999999999992 C 232.70000000000002 22.09999999999999 236.3 23.59999999999999 238.9 26.29999999999999 C 240.6 27.99999999999999 242.9 28.99999999999999 244.9 30.19999999999999 C 246.70000000000002 31.29999999999999 247.8 32.999999999999986 250 33.39999999999999 L 0 33.39999999999999 z" stroke-linecap="round" />
</g>
</g>
</g>
		<g transform="matrix(0.8454261350981513 0 0 0.6430221480692563 90.65322711138538 106.18384648780585)"  >
<g style=""  paint-order="stroke"   >
		<g transform="matrix(1 0 0 1 0 0)"  >
<path style="stroke: none; stroke-width: 1; stroke-dasharray: none; stroke-linecap: butt; stroke-dashoffset: 0; stroke-linejoin: miter; stroke-miterlimit: 4; fill: rgb(123,111,91); fill-rule: nonzero; opacity: 1;"  paint-order="stroke"  transform=" translate(-125, -16.8824023869372)" d="M 0 33.7 C 2.5 32.2 9.4 27.900000000000002 11.8 26.200000000000003 C 13.3 25.1 14.600000000000001 23.900000000000002 16.1 22.700000000000003 C 17.8 21.400000000000002 20.1 21.200000000000003 22.1 20.1 C 23.6 19.3 24.8 18.1 26.3 17.3 C 28.2 16.400000000000002 30 14.9 31.8 14.200000000000001 C 34.7 13.100000000000001 38.3 15.700000000000001 41.1 14.100000000000001 C 43.1 13.000000000000002 43.4 12.000000000000002 45.5 12.700000000000001 C 47.3 13.3 49.4 14.900000000000002 51.2 14.8 C 52.2 14.700000000000001 53.6 13.5 54.400000000000006 12.9 C 55.800000000000004 11.8 57.2 10.600000000000001 58.50000000000001 9.4 C 59.70000000000001 8.3 61.10000000000001 6.800000000000001 62.400000000000006 5.9 C 63.2 5.300000000000001 64.4 5.2 65.30000000000001 4.7 C 66.10000000000001 4.2 66.9 3.4000000000000004 67.70000000000002 2.9000000000000004 C 68.80000000000001 2.2 70.90000000000002 0.40000000000000036 72.20000000000002 0.10000000000000053 C 73.20000000000002 -0.09999999999999948 74.20000000000002 0.6000000000000005 75.10000000000002 1.0000000000000004 C 80.20000000000002 3.3000000000000003 85.50000000000003 6.4 89.80000000000003 9.9 C 94.40000000000002 13.7 100.80000000000003 14.5 105.70000000000003 17.7 C 106.10000000000004 16.9 107.70000000000003 16.8 108.50000000000003 16.4 C 109.70000000000003 15.799999999999999 110.70000000000003 14.299999999999999 112.10000000000002 14.499999999999998 C 112.80000000000003 14.599999999999998 113.40000000000002 15.199999999999998 114.00000000000003 15.499999999999998 C 116.30000000000003 16.9 117.50000000000003 16.7 119.70000000000003 15.599999999999998 C 121.70000000000003 14.599999999999998 123.40000000000003 13.999999999999998 125.20000000000003 12.699999999999998 C 126.60000000000004 11.699999999999998 128.10000000000002 10.799999999999997 129.60000000000002 9.899999999999999 C 130.70000000000002 9.2 132.00000000000003 7.599999999999999 133.3 7.499999999999998 C 133.9 7.499999999999998 135 8.199999999999998 135.60000000000002 8.499999999999998 C 137.20000000000002 9.299999999999999 139.70000000000002 10.199999999999998 141.00000000000003 11.299999999999997 C 142.40000000000003 12.399999999999997 142.40000000000003 13.599999999999998 144.30000000000004 12.999999999999996 C 145.50000000000003 12.699999999999996 145.60000000000005 12.399999999999997 146.90000000000003 12.899999999999997 C 148.40000000000003 13.499999999999996 149.50000000000003 14.799999999999997 151.00000000000003 15.299999999999997 C 152.00000000000003 15.599999999999998 153.00000000000003 15.299999999999997 153.90000000000003 15.799999999999997 C 154.50000000000003 16.099999999999998 154.80000000000004 16.999999999999996 155.50000000000003 17.099999999999998 C 156.40000000000003 17.2 157.60000000000002 16.2 158.30000000000004 15.799999999999997 C 161.00000000000003 13.999999999999996 163.90000000000003 12.299999999999997 166.40000000000003 10.199999999999998 C 168.40000000000003 8.499999999999998 169.40000000000003 7.299999999999997 171.90000000000003 8.399999999999997 C 174.60000000000002 9.699999999999998 177.20000000000005 11.599999999999998 179.80000000000004 13.199999999999996 C 181.90000000000003 14.399999999999995 184.00000000000003 15.299999999999995 186.00000000000003 16.599999999999994 C 187.20000000000002 17.399999999999995 188.00000000000003 17.899999999999995 189.30000000000004 17.699999999999996 C 190.50000000000003 17.499999999999996 191.70000000000005 16.399999999999995 193.00000000000003 16.599999999999994 C 193.60000000000002 16.699999999999996 194.60000000000002 17.599999999999994 195.20000000000002 17.999999999999993 C 197.60000000000002 19.599999999999994 199.70000000000002 21.39999999999999 202.50000000000003 22.39999999999999 C 203.70000000000002 22.79999999999999 204.90000000000003 23.09999999999999 206.10000000000002 23.499999999999993 C 206.8 23.799999999999994 207.50000000000003 24.499999999999993 208.3 24.499999999999993 C 209.4 24.499999999999993 209.9 23.599999999999994 210.70000000000002 22.89999999999999 C 211.60000000000002 22.09999999999999 213.00000000000003 20.999999999999993 214.20000000000002 20.699999999999992 C 215.3 20.39999999999999 216.70000000000002 20.999999999999993 217.8 20.699999999999992 C 220.10000000000002 19.999999999999993 221.5 16.699999999999992 224.3 16.499999999999993 C 226 16.39999999999999 228.60000000000002 18.699999999999992 229.8 19.699999999999992 C 232.70000000000002 22.09999999999999 236.3 23.59999999999999 238.9 26.29999999999999 C 240.6 27.99999999999999 242.9 28.99999999999999 244.9 30.19999999999999 C 246.70000000000002 31.29999999999999 247.8 32.999999999999986 250 33.39999999999999 L 0 33.39999999999999 z" stroke-linecap="round" />
</g>
</g>
</g>
		<g transform="matrix(0.19689206033868736 0 0 0.19689206033868736 -125.33069028672446 -38.06372026794628)"  >
<g style=""  paint-order="stroke"   >
		<g transform="matrix(1 0 0 1 0 0)"  >
<polygon style="stroke: none; stroke-width: 1; stroke-dasharray: none; stroke-linecap: butt; stroke-dashoffset: 0; stroke-linejoin: miter; stroke-miterlimit: 4; fill: rgb(123,111,91); fill-rule: nonzero; opacity: 1;"  paint-order="stroke"  points="100,-22.430000000000007 30.900000000000006,-32.46 0,-95 -30.900000000000006,-32.46 -100,-22.430000000000007 -50,26.260000000000005 -61.8,95 0,62.55000000000001 61.80000000000001,95 50,26.260000000000005 100,-22.430000000000007 " />
</g>
</g>
</g>
		<g transform="matrix(0.14190664244091608 0 0 0.14190664244091608 -83.64977468013183 -85.83638097152246)"  >
<g style=""  paint-order="stroke"   >
		<g transform="matrix(1 0 0 1 0 0)"  >
<polygon style="stroke: none; stroke-width: 1; stroke-dasharray: none; stroke-linecap: butt; stroke-dashoffset: 0; stroke-linejoin: miter; stroke-miterlimit: 4; fill: rgb(123,111,91); fill-rule: nonzero; opacity: 1;"  paint-order="stroke"  points="100,-22.430000000000007 30.900000000000006,-32.46 0,-95 -30.900000000000006,-32.46 -100,-22.430000000000007 -50,26.260000000000005 -61.8,95 0,62.55000000000001 61.80000000000001,95 50,26.260000000000005 100,-22.430000000000007 " />
</g>
</g>
</g>
		<g transform="matrix(0.10903403069744762 0 0 0.10903403069744762 -29.834770636677945 -106.66053676651529)"  >
<g style=""  paint-order="stroke"   >
		<g transform="matrix(1 0 0 1 0 0)"  >
<polygon style="stroke: none; stroke-width: 1; stroke-dasharray: none; stroke-linecap: butt; stroke-dashoffset: 0; stroke-linejoin: miter; stroke-miterlimit: 4; fill: rgb(123,111,91); fill-rule: nonzero; opacity: 1;"  paint-order="stroke"  points="100,-22.430000000000007 30.900000000000006,-32.46 0,-95 -30.900000000000006,-32.46 -100,-22.430000000000007 -50,26.260000000000005 -61.8,95 0,62.55000000000001 61.80000000000001,95 50,26.260000000000005 100,-22.430000000000007 " />
</g>
</g>
</g>
		<g transform="matrix(0.0772949975063767 0 0 0.0772949975063767 19.607300072446094 -106.66053676651529)"  >
<g style=""  paint-order="stroke"   >
		<g transform="matrix(1 0 0 1 0 0)"  >
<polygon style="stroke: none; stroke-width: 1; stroke-dasharray: none; stroke-linecap: butt; stroke-dashoffset: 0; stroke-linejoin: miter; stroke-miterlimit: 4; fill: rgb(123,111,91); fill-rule: nonzero; opacity: 1;"  paint-order="stroke"  points="100,-22.430000000000007 30.900000000000006,-32.46 0,-95 -30.900000000000006,-32.46 -100,-22.430000000000007 -50,26.260000000000005 -61.8,95 0,62.55000000000001 61.80000000000001,95 50,26.260000000000005 100,-22.430000000000007 " />
</g>
</g>
</g>
		<g transform="matrix(0.05738324577819497 0 0 0.05738324577819497 56.149864520854806 -87.61719465977899)"  >
<g style=""  paint-order="stroke"   >
		<g transform="matrix(1 0 0 1 0 0)"  >
<polygon style="stroke: none; stroke-width: 1; stroke-dasharray: none; stroke-linecap: butt; stroke-dashoffset: 0; stroke-linejoin: miter; stroke-miterlimit: 4; fill: rgb(123,111,91); fill-rule: nonzero; opacity: 1;"  paint-order="stroke"  points="100,-22.430000000000007 30.900000000000006,-32.46 0,-95 -30.900000000000006,-32.46 -100,-22.430000000000007 -50,26.260000000000005 -61.8,95 0,62.55000000000001 61.80000000000001,95 50,26.260000000000005 100,-22.430000000000007 " />
</g>
</g>
</g>
</g>
</g>
<g transform="matrix(1.9211538461538467 0 0 1.9211538461538467 639.9759855769228 597.7321822573828)" id="tagline-2d49d834-8996-493b-9f3c-357f00c54ec4-logo"  >
<g style=""  paint-order="stroke"   >
		<g transform="matrix(1 0 0 1 0 0)" id="tagline-2d49d834-8996-493b-9f3c-357f00c54ec4-logo-path-0"  >
<path style="stroke: none; stroke-width: 0; stroke-dasharray: none; stroke-linecap: butt; stroke-dashoffset: 0; stroke-linejoin: miter; stroke-miterlimit: 4; fill: rgb(255,255,255); fill-rule: nonzero; opacity: 1;"  paint-order="stroke"  transform=" translate(-122.44, 8.75)" d="M 13.78 -14.08 L 13.78 -17.5 L 0.28 -17.5 L 0.28 -14.08 L 1.53 -13.83 L 2.27 -15.03 L 5.28 -15.03 L 5.28 -2 L 4.08 -1.25 L 4.33 0 L 9.73 0 L 9.98 -1.25 L 8.78 -2 L 8.78 -15.03 L 11.78 -15.03 L 12.53 -13.83 Z M 32.23 -16.25 L 33.38 -15.5 L 28.93 -2 L 27.07 -1.25 L 27.32 0 L 33.2 0 L 33.58 -1.25 L 32.42 -2 L 33.25 -4.5 L 38.8 -4.5 L 39.63 -2 L 38.48 -1.25 L 38.85 0 L 44.73 0 L 44.98 -1.25 L 43.13 -2 L 38.02 -17.5 L 32.6 -17.5 Z M 34 -6.75 L 36.02 -12.95 L 38.05 -6.75 Z M 61 -16.25 L 62.2 -15.5 L 62.2 -2 L 61 -1.25 L 61.25 0 L 66.65 0 L 66.9 -1.25 L 65.7 -2 L 65.7 -11.35 L 71.7 0 L 76.2 0 L 76.2 -15.5 L 77.4 -16.25 L 77.15 -17.5 L 71.75 -17.5 L 71.5 -16.25 L 72.7 -15.5 L 72.7 -4.73 L 65.95 -17.5 L 61.25 -17.5 Z M 94.17 -16.25 L 95.37 -15.5 L 95.37 -2 L 94.17 -1.25 L 94.42 0 L 99.82 0 L 100.07 -1.25 L 98.87 -2 L 98.87 -5 L 100.12 -6.65 L 103.8 -2 L 102.97 -1.25 L 103.47 0 L 109.65 0 L 109.72 -1.25 L 108.13 -1.58 L 102.1 -9.22 L 107.17 -15.9 L 108.72 -16.25 L 108.65 -17.5 L 102.72 -17.5 L 102.22 -16.25 L 103.13 -15.5 L 98.87 -9.85 L 98.87 -15.5 L 100.07 -16.25 L 99.82 -17.5 L 94.42 -17.5 Z M 149.78 -16.25 L 150.97 -15.5 L 150.97 -2 L 149.78 -1.25 L 150.03 0 L 156.9 0 C 161.75 0 164.75 -3.13 164.75 -8.75 C 164.75 -14.25 162.03 -17.5 156.9 -17.5 L 150.03 -17.5 Z M 154.47 -2.48 L 154.47 -15.03 L 156.9 -15.03 C 159.63 -15.03 161.13 -13 161.13 -8.75 C 161.13 -4.65 159.72 -2.48 156.9 -2.48 Z M 181.53 -16.25 L 182.72 -15.5 L 182.72 -2 L 181.53 -1.25 L 181.78 0 L 187.18 0 L 187.43 -1.25 L 186.22 -2 L 186.22 -15.5 L 187.43 -16.25 L 187.18 -17.5 L 181.78 -17.5 Z M 204.28 -16.25 L 205.47 -15.5 L 205.47 -2 L 204.28 -1.25 L 204.53 0 L 209.93 0 L 210.18 -1.25 L 208.97 -2 L 208.97 -7.75 L 211.78 -7.75 L 212.53 -6.55 L 213.78 -6.8 L 213.78 -10.95 L 212.53 -11.2 L 211.78 -10 L 208.97 -10 L 208.97 -15.03 L 214.28 -15.03 L 215.03 -13.83 L 216.28 -14.08 L 216.28 -17.5 L 204.53 -17.5 Z M 232.6 -16.25 L 233.8 -15.5 L 233.8 -2 L 232.6 -1.25 L 232.85 0 L 238.25 0 L 238.5 -1.25 L 237.3 -2 L 237.3 -7.75 L 240.1 -7.75 L 240.85 -6.55 L 242.1 -6.8 L 242.1 -10.95 L 240.85 -11.2 L 240.1 -10 L 237.3 -10 L 237.3 -15.03 L 242.6 -15.03 L 243.35 -13.83 L 244.6 -14.08 L 244.6 -17.5 L 232.85 -17.5 Z" stroke-linecap="round" />
</g>
</g>
</g>
<g transform="matrix(1.9211538461538467 0 0 1.9211538461538467 640.6916153846153 507.8664453846153)" id="text-logo"  >
<g style=""  paint-order="stroke"   >
		<g transform="matrix(1 0 0 1 0 0)" id="text-logo-path-0"  >
<filter id="SVGID_246619" y="-31.904761904761905%" height="163.8095238095238%" x="-21.049273902459497%" width="142.098547804919%" >
	<feGaussianBlur in="SourceAlpha" stdDeviation="0"></feGaussianBlur>
	<feOffset dx="-5" dy="5" result="oBlur" ></feOffset>
	<feFlood flood-color="rgb(123,111,91)" flood-opacity="1"/>
	<feComposite in2="oBlur" operator="in" />
	<feMerge>
		<feMergeNode></feMergeNode>
		<feMergeNode in="SourceGraphic"></feMergeNode>
	</feMerge>
</filter>
<path style="stroke: rgb(123,111,91); stroke-width: 2; stroke-dasharray: none; stroke-linecap: butt; stroke-dashoffset: 0; stroke-linejoin: miter; stroke-miterlimit: 4; fill: rgb(255,255,255); fill-rule: nonzero; opacity: 1;filter: url(#SVGID_246619);"  paint-order="stroke"  transform=" translate(-241.26, 21)" d="M 14.4 -7.2 L 13.2 -7.2 L 10.2 -10.2 L 10.2 -31.8 L 13.2 -34.8 L 14.4 -34.8 L 14.4 -42 L 10.2 -42 L 3 -34.8 L 3 -7.2 L 10.2 0 L 14.4 0 Z M 16.2 0 L 20.46 0 L 27.66 -7.2 L 27.66 -34.8 L 20.46 -42 L 16.2 -42 L 16.2 -34.8 L 17.46 -34.8 L 20.46 -31.8 L 20.46 -10.2 L 17.46 -7.2 L 16.2 -7.2 Z M 53.82 -7.2 L 52.56 -7.2 L 49.56 -10.2 L 49.56 -42 L 42.36 -42 L 42.36 -7.2 L 49.56 0 L 53.82 0 Z M 55.62 0 L 59.82 0 L 67.02 -7.2 L 67.02 -42 L 59.82 -42 L 59.82 -10.2 L 56.82 -7.2 L 55.62 -7.2 Z M 97.68 0 L 97.68 -33 L 90.48 -33 L 90.48 0 Z M 81.72 -34.8 L 106.38 -34.8 L 106.38 -42 L 81.72 -42 Z M 130.08 -34.8 L 135.54 -34.8 L 138.54 -31.8 L 138.54 -10.2 L 135.54 -7.2 L 130.08 -7.2 L 130.08 0 L 138.54 0 L 145.74 -7.2 L 145.74 -34.8 L 138.54 -42 L 130.08 -42 Z M 121.08 0 L 128.28 0 L 128.28 -42 L 121.08 -42 Z M 167.64 0 L 167.64 -15.78 L 172.8 -33.66 L 177.9 -15.78 L 177.9 -15.6 L 169.44 -15.6 L 169.44 -8.4 L 177.9 -8.4 L 177.9 0 L 185.1 0 L 185.1 -16.8 L 177.9 -42 L 167.64 -42 L 160.44 -16.8 L 160.44 0 Z M 215.76 0 L 215.76 -33 L 208.56 -33 L 208.56 0 Z M 199.8 -34.8 L 224.46 -34.8 L 224.46 -42 L 199.8 -42 Z M 246.36 0 L 246.36 -42 L 239.16 -42 L 239.16 0 Z M 248.16 0 L 262.02 0 L 262.02 -7.2 L 248.16 -7.2 Z M 248.16 -17.1 L 258.42 -17.1 L 258.42 -24.3 L 248.16 -24.3 Z M 248.16 -34.8 L 262.02 -34.8 L 262.02 -42 L 248.16 -42 Z M 285.72 -34.8 L 291.18 -34.8 L 294.18 -31.8 L 294.18 -10.2 L 291.18 -7.2 L 285.72 -7.2 L 285.72 0 L 294.18 0 L 301.38 -7.2 L 301.38 -34.8 L 294.18 -42 L 285.72 -42 Z M 276.72 0 L 283.92 0 L 283.92 -42 L 276.72 -42 Z M 352.74 0 L 352.74 -33 L 345.54 -33 L 345.54 0 Z M 336.78 -34.8 L 361.44 -34.8 L 361.44 -42 L 336.78 -42 Z M 383.34 0 L 383.34 -15.78 L 388.5 -33.66 L 393.6 -15.78 L 393.6 -15.6 L 385.14 -15.6 L 385.14 -8.4 L 393.6 -8.4 L 393.6 0 L 400.8 0 L 400.8 -16.8 L 393.6 -42 L 383.34 -42 L 376.14 -16.8 L 376.14 0 Z M 422.7 0 L 422.7 -26.64 L 426.96 -15.36 L 426.96 -30.36 L 422.7 -42 L 415.5 -42 L 415.5 0 Z M 428.76 -12.12 L 432.96 0 L 440.16 0 L 440.16 -42 L 432.96 -42 L 432.96 -14.88 L 428.76 -26.82 Z M 462.06 0 L 462.06 -42 L 454.86 -42 L 454.86 0 Z M 463.86 -17.7 L 469.32 -17.7 L 472.32 -14.7 L 472.32 0 L 479.52 0 L 479.52 -17.7 L 475.32 -21.9 L 478.32 -24.9 L 478.32 -42 L 471.12 -42 L 471.12 -27.9 L 468.12 -24.9 L 463.86 -24.9 Z" stroke-linecap="round" />
</g>
</g>
</g>
</svg>